<?xml version="1.0" encoding="utf-8"?>
<!-- Generator: Adobe Illustrator 19.0.0, SVG Export Plug-In . SVG Version: 6.00 Build 0)  -->
<svg version="1.1" id="Layer_1" xmlns="http://www.w3.org/2000/svg" xmlns:xlink="http://www.w3.org/1999/xlink" x="0px" y="0px"
	 viewBox="0 0 420 420" style="enable-background:new 0 0 420 420;" xml:space="preserve">
<style type="text/css">
	.st0{fill:#DCD7D4;}
</style>
<circle id="XMLID_2_" class="st0" cx="210" cy="210" r="208.2"/>
<path id="XMLID_14_" d="M210,28.1C109.5,28.1,28.1,109.5,28.1,210S109.5,391.9,210,391.9S391.9,310.5,391.9,210S310.5,28.1,210,28.1
	z M210,374.4c-90.8,0-164.4-73.6-164.4-164.4S119.2,45.6,210,45.6S374.4,119.2,374.4,210S300.8,374.4,210,374.4z"/>
<circle id="XMLID_1_" cx="220" cy="117.5" r="29.8"/>
<g id="XMLID_10_">
	<g id="XMLID_12_">
		<g id="XMLID_35_">
			<path d="M248,256.6c4.7-0.6,9.3-1.8,14-2.6c2.5-0.4,4.7-1.5,7.1-2.1c1.8-0.4,3.7-0.3,5.5-0.7c4.8-1.1,10.8-3.1,15.1-5.6
				c4.3-2.5,7.6-5.9,11.1-9.3c7-6.7-3.6-17.3-10.6-10.6c-2.6,2.5-4.8,5.2-8.1,7c-3.4,1.8-8.1,3.4-11.9,4.1c-2,0.3-3.8,0.3-5.7,1
				c-2,0.7-3.6,1.4-5.7,1.8c-2,0.3-4,0.4-6,0.8c-1.6,0.3-3.4,1.2-4.9,1.4c-4,0.5-7.5,3.1-7.5,7.5C240.5,252.7,244,257.1,248,256.6
				L248,256.6z"/>
		</g>
	</g>
	<g id="XMLID_4_">
		<g id="XMLID_23_">
			<path d="M209.2,185c0.7,6.5,0.5,13.1,0.6,19.6c0.1,6.8,0.9,13.6,1.3,20.4c0.6,13.2,2.4,26.4,4.4,39.4c1.8,12.3,4.1,24.8,7.6,36.7
				c0.8,2.9,2,5.5,2.4,8.5c0.4,2.7,1.2,4.6,1.8,7.2c0.7,2.9,1,5.6,1.9,8.5c0.4,1.4,0.5,2.7,0.8,4.1c0.1,0.6,1.1,5.1,0.9,2.6
				c0.7,9.6,15.7,9.6,15,0c-0.4-5.2-2.8-10-3.7-15.1c-0.4-2.6-1.1-4.7-1.7-7.2c-0.7-3-0.8-6-1.8-9.1c-3.9-11.7-6.2-24.3-8.2-36.5
				c-2.1-12.9-3.8-26-4.4-39.1c-0.3-6.5-1.1-12.9-1.2-19.4c-0.2-6.9,0.1-13.7-0.6-20.6c-0.4-4-3.1-7.5-7.5-7.5
				C212.9,177.5,208.7,181,209.2,185L209.2,185z"/>
		</g>
	</g>
	<g id="XMLID_5_">
		<g id="XMLID_26_">
			<path d="M210.7,236.3c-6.5,6-11.7,13.3-19.5,17.9c-7.4,4.4-16.3,6.3-24.5,8.8c-9.3,2.8-18.8,5.8-28.5,6.8
				c-5,0.5-10.1,0.6-15.1,1.4c-4.4,0.7-8.6,2.8-13.1,3.2c-9.5,0.9-9.6,15.9,0,15c5.1-0.5,9.6-2.2,14.5-3.3c5.1-1.1,10.4-1,15.5-1.5
				c11.1-1.2,21.8-4.4,32.5-7.7c9.2-2.8,18.7-5.2,27-10.2c8.6-5.3,14.5-13.1,21.8-19.9C228.5,240.4,217.8,229.8,210.7,236.3
				L210.7,236.3z"/>
		</g>
	</g>
	<g id="XMLID_6_">
		<g id="XMLID_33_">
			<path d="M105.3,145.7c11.5,9,24.9,17.6,39,21.7c7.8,2.3,15.6,4.2,23.5,6.2c8.3,2.1,16.8,3.5,25,5.9c6.8,2,13.5,4.1,20.4,5.7
				c6.9,1.6,14.2,1.9,21.3,1.8c8.5-0.2,17-0.3,25.4,0.6c3.6,0.4,7.1,0.2,10.7,0.7c3.8,0.5,6.7,1.2,10.3,2.5
				c6.2,2.3,14.3,6.8,15,14.1c0.8,7.8-0.4,15.6-6.3,21.2c-7,6.7,3.6,17.3,10.6,10.6c5.4-5.2,9.5-12.6,10.3-20.1
				c0.9-7.9,1.2-17.2-3.5-24.1c-2.3-3.4-4-6.1-7.6-8.4c-3.8-2.4-7.6-5.2-11.8-6.8c-7.8-3.1-16-4.6-24.5-4.6c-3.7,0-7.4-0.7-11.2-0.8
				c-4.9-0.1-9.9,0-14.8,0.1c-7.8,0.1-15.5,0-23.1-1.7c-7.4-1.6-14.3-4.6-21.7-6.3c-9-2.1-18-4-27-6.3c-9.1-2.4-19.5-4.1-27.8-8.7
				c-7.4-4.2-15.2-8.5-21.9-13.8c-3.2-2.5-7.5-3.1-10.6,0C102.7,137.7,102.1,143.2,105.3,145.7L105.3,145.7z"/>
		</g>
	</g>
	<g id="XMLID_8_">
		<g id="XMLID_47_">
			<path id="XMLID_9_" d="M210,187c0,8.6,0,17.3,0,25.9c0,6.2-1.7,14.4,2.2,19.8c1.9,2.7,5.1,4.5,8.5,3.4c9.1-2.8,8.6-12.9,10-20.4
				c0.9-4.9,0.9-9.5,0.9-14.4c0-2.2-0.1-4.4,0-6.6c0.1-2.7,1.1-5.3,1.2-8c-5,0-10,0-15,0c-0.2,7.5-1,14.7-1.9,22.2
				c-0.4,3.6-0.8,7.2-1.3,10.9c-0.4,3.1-1.5,6-1.7,9.2c-0.6,9.6,14.3,9.6,15,0c0.4-6.5,2-12.5,2.9-18.8c1-7.3,4.4-14.1,5.3-21.5
				c1-8.4-5.6-11.2-12.7-11c-3,0.1-6.4,0.6-9.3,0.1c-3.4-0.7-6.1-2.2-9.8-1.8c-5,0.6-8.3,4.3-7.2,9.5c0.1,0.6,0.7,3.9,0.7,2.1
				c2.5-2.5,5-5,7.5-7.5c-0.3,0-0.7,0-1-0.1c1.3,0.3,2.5,0.7,3.8,1c1.2,0.8-1.6-2.5-2.1-3c-0.9-1-2.1-1.9-3-3
				c-1.6-2.1-3.6-4.4-4.7-6.9c-2.8,3.7-5.6,7.3-8.5,11c0.6,0.2,3.3,4.9,3.9,5.9c1.5,2.5,2.4,4.9,3.5,7.6c1.2,3.1,1.3,3.1,1.8,6.6
				c0.4,2.8,0.7,5.6,1.7,8.3c1.7,5,2.2,10.3,3.4,15.5c1.3,5.9,1.9,11.6,1.8,17.7c5,0,10,0,15,0c0-6,0.3-12.1-0.4-18.1
				c-0.7-5.3-2.8-10.5-3.2-15.8c-0.9-11.5-3.4-22.2-8.3-32.7c-4-8.8-17-1.1-13,7.6c2,4.4,3.8,8.8,4.7,13.5
				c0.9,5.1,1.1,10.2,1.9,15.3c0.8,4.8,2.4,9.3,3,14.2c0.6,5.3,0.2,10.8,0.2,16.1c0,9.7,14.9,9.7,15,0c0.1-7.8-1.2-15-2.6-22.7
				c-1.1-6.3-3.2-12.4-4.2-18.6c-0.5-3.2-0.4-6.4-1.6-9.4c-1.3-3-2.3-6.1-3.8-9.1c-3-6.1-7.9-14.4-14.9-16.3
				c-6.8-1.9-11.1,5.3-8.5,11c1.8,3.9,5.5,8.4,8.5,11.4c3.7,3.7,5.6,7.6,11.5,7.9c4.2,0.2,7.3-3.6,7.5-7.5c0.1-2.3-0.8-4.1-1.3-6.1
				c-2.4,3.2-4.8,6.3-7.2,9.5c3.7-0.4,7.6,1.8,11.5,1.9c3.9,0.1,7.9-0.7,11.7-0.2c-1.3-0.3-2.5-0.7-3.8-1c-0.5-0.5-0.9-0.9-1.4-1.4
				c-0.3-1.3-0.7-2.5-1-3.8c-0.1,7.4-4.2,14.8-5.4,22c-1.1,6.8-2.5,13.5-2.9,20.4c5,0,10,0,15,0c0.2-2.7,1.3-5.8,1.7-8.6
				c0.6-3.7,0.8-7.3,1.3-11c0.9-7.6,1.7-15,1.9-22.6c0.2-9.7-14.4-9.6-15,0c-0.2,3.5-1.2,6.8-1.2,10.4c0,3.7,0.1,7.4,0,11
				c-0.1,3.2-0.9,6.4-1.2,9.6c-0.1,1.3-0.3,2.3-0.6,3.5c-0.8,3.4-1.3,1.3,1.8,0.4c2.8,1.1,5.6,2.3,8.5,3.4c-0.9-1.3-0.3-4-0.2-5.7
				c0.1-3.4,0-6.7,0-10.1c0-7.4,0-14.9,0-22.3C225,177.3,210,177.3,210,187L210,187z"/>
		</g>
	</g>
</g>
</svg>
